<?xml version="1.0" standalone="no"?>
<!DOCTYPE svg PUBLIC "-//W3C//DTD SVG 20010904//EN"
 "http://www.w3.org/TR/2001/REC-SVG-20010904/DTD/svg10.dtd">
<svg version="1.0" xmlns="http://www.w3.org/2000/svg"
 width="1536.000000pt" height="1536.000000pt" viewBox="0 0 1536.000000 1536.000000"
 preserveAspectRatio="xMidYMid meet">
<metadata>
Created by potrace 1.14, written by Peter Selinger 2001-2017
</metadata>
<g transform="translate(0.000000,1536.000000) scale(0.100000,-0.100000)"
fill="#000000" stroke="none">
<path d="M7579 14396 c-2 -2 -27 -6 -55 -10 -94 -11 -229 -60 -331 -120 -159
-94 -277 -221 -371 -398 -137 -259 -129 -619 20 -874 75 -130 196 -258 316
-334 l71 -45 1 -547 0 -548 -1920 0 -1920 0 -255 -172 -255 -172 0 -1043 0
-1043 -241 0 -240 0 -240 -240 -239 -239 0 -466 0 -465 240 -240 240 -240 240
0 240 0 0 -1373 0 -1372 68 -87 c37 -47 110 -141 162 -208 52 -67 105 -133
116 -147 12 -14 46 -58 75 -99 l54 -73 1202 0 1203 -1 2 -1152 3 -1152 25 -12
c14 -7 41 -19 60 -27 19 -8 172 -72 340 -142 168 -71 326 -136 352 -146 l47
-18 32 37 c18 20 69 78 114 127 82 91 161 177 225 249 19 21 44 48 55 60 88
96 180 199 194 214 21 25 163 182 177 196 5 6 57 63 114 126 56 63 110 122
119 131 9 9 48 51 86 94 39 43 75 83 80 89 6 6 75 83 155 171 79 88 159 176
176 195 18 19 41 44 51 56 10 12 55 61 100 110 45 49 90 98 100 110 23 27 174
193 233 257 25 27 50 54 55 61 22 25 183 204 221 246 23 25 57 62 75 82 l33
38 1498 0 1499 0 240 240 239 239 0 1441 0 1440 250 0 250 0 240 240 240 240
0 465 0 466 -240 240 -239 239 -251 0 -250 0 0 976 0 975 -240 240 -239 239
-1921 0 -1920 0 0 563 1 562 67 43 c200 127 341 329 408 582 21 80 24 280 5
360 -58 246 -181 439 -371 579 -169 125 -331 180 -546 186 -67 2 -123 2 -125
1z m3941 -6716 l0 -2880 -1367 0 -1368 0 -169 -72 -168 -73 -96 -110 c-53 -60
-101 -115 -107 -121 -33 -36 -93 -104 -190 -214 -60 -69 -129 -148 -154 -175
-26 -28 -75 -84 -111 -124 -36 -41 -70 -79 -75 -85 -6 -6 -71 -81 -145 -166
-74 -85 -142 -162 -150 -170 -17 -18 -67 -74 -155 -175 -33 -38 -67 -76 -75
-85 -8 -8 -60 -67 -115 -130 -55 -63 -102 -117 -106 -120 -3 -3 -36 -41 -74
-84 -38 -44 -88 -100 -112 -125 -23 -25 -43 -49 -43 -53 0 -5 -4 -8 -10 -8 -7
0 -10 355 -10 1045 l0 1045 -262 1 c-145 1 -281 2 -303 4 -22 1 -98 5 -170 9
-71 4 -152 9 -180 11 -27 2 -111 7 -185 10 -74 4 -157 8 -185 10 -27 2 -99 6
-160 9 -60 4 -148 9 -195 11 -47 3 -123 7 -170 10 -151 8 -273 15 -350 20 -41
3 -127 7 -190 10 -63 3 -142 7 -175 10 -66 5 -297 18 -332 19 l-23 0 0 2813 0
2813 3840 0 3840 0 0 -2880z"/>
<path d="M5270 8640 l0 -480 480 0 480 0 0 480 0 480 -480 0 -480 0 0 -480z"/>
<path d="M9110 8640 l0 -480 480 0 480 0 0 480 0 480 -480 0 -480 0 0 -480z"/>
<path d="M5515 6864 c-182 -185 -331 -340 -333 -344 -4 -11 156 -160 276 -256
60 -47 169 -125 243 -174 74 -49 139 -93 145 -97 12 -9 59 -35 211 -113 187
-98 613 -259 752 -286 7 -1 34 -8 60 -14 70 -16 123 -26 240 -46 18 -3 43 -8
55 -10 11 -2 48 -7 81 -10 33 -3 62 -8 65 -9 13 -8 227 -19 365 -19 140 0 318
9 375 18 14 3 48 7 75 10 228 25 526 100 800 202 114 43 383 165 415 189 8 6
40 24 70 39 30 16 62 35 71 42 8 8 19 14 23 14 14 0 352 237 392 275 6 5 37
33 69 60 32 28 88 78 124 112 l66 62 -62 63 c-33 35 -184 188 -335 340 l-273
278 -60 -56 c-249 -233 -517 -404 -820 -524 -70 -28 -211 -75 -255 -85 -8 -2
-44 -11 -80 -20 -36 -10 -85 -19 -110 -20 -25 -2 -76 -8 -115 -14 -157 -25
-387 -32 -584 -17 -58 4 -107 9 -110 11 -3 1 -29 6 -58 9 -28 3 -73 11 -100
17 -26 6 -61 13 -78 16 -55 9 -262 72 -362 109 -283 106 -591 294 -812 495
-25 24 -57 53 -71 65 l-25 23 -330 -335z"/>
</g>
</svg>
